<svg id="Layer_1" data-name="Layer 1" xmlns="http://www.w3.org/2000/svg" viewBox="0 0 283.46 283.46"><defs><style>.cls-1{fill:#379461;}</style></defs><title>baqi</title><path class="cls-1" d="M228.29,214.21c-9.86-2.36-20.68-12.9-27.54-21.62s-14.84-11.12-14.84-11.12a9.37,9.37,0,0,1,0-3.11c.32-.91,3.64-1.56,3.64-1.56l13.18,10.51c2.68,1.71,3.86,1.93,7.72-2.58s-.75-7.23-.75-7.23l-9.33-7.13L267,136.93,238.05,47.12l-10,5.58L251,130.29,143.73,183.34,36.45,130.29,59.39,52.7l-10-5.58L20.48,136.93l66.61,33.44-9.32,7.13s-4.61,2.73-.75,7.23,5,4.29,7.71,2.58L97.92,176.8s3.32.65,3.64,1.56a9.66,9.66,0,0,1,0,3.11s-8,2.41-14.84,11.12S69,211.85,59.17,214.21c0,0-19.54,7.39-13.89,18,0,0,4.93,7.64,11.43,4.79l87-48.45,87,48.45c6.5,2.85,11.43-4.79,11.43-4.79C247.83,221.6,228.29,214.21,228.29,214.21Z"/><path class="cls-1" d="M90.36,141.65c5.58,2.9,15.37,8.8,34.94,20.58,6.38,3.84,11.64,7,15.22,9.21V78.85a59.21,59.21,0,0,0-17.37-13.29C111.94,60,104.4,60.9,88.75,56.34A135.34,135.34,0,0,1,65.5,47.12L44.92,126.93A149.69,149.69,0,0,1,90.36,141.65Z"/><path class="cls-1" d="M197.1,141.65a149.67,149.67,0,0,1,45.45-14.72L222,47.12a135.37,135.37,0,0,1-23.26,9.22c-15.64,4.56-23.18,3.61-34.4,9.22A59.27,59.27,0,0,0,147,78.85v92.59c3.58-2.18,8.84-5.37,15.22-9.21C181.74,150.45,191.52,144.55,197.1,141.65Z"/></svg>